<mxfile host="app.diagrams.net" modified="2024-04-24T13:04:49.308Z" agent="Mozilla/5.0 (X11; Linux x86_64) AppleWebKit/537.36 (KHTML, like Gecko) Chrome/124.0.0.0 Safari/537.36" etag="ChPiGvL_0X2Afq_jdX7_" version="24.2.8" type="device">
  <diagram name="Page-1" id="lR3LfV__DhEKkwBW_j1m">
    <mxGraphModel dx="1674" dy="772" grid="1" gridSize="10" guides="1" tooltips="1" connect="1" arrows="1" fold="1" page="1" pageScale="1" pageWidth="850" pageHeight="1100" math="0" shadow="0">
      <root>
        <mxCell id="0" />
        <mxCell id="1" parent="0" />
        <mxCell id="DPP8ruJpzA178E0mYyQU-8" style="edgeStyle=none;curved=1;rounded=0;orthogonalLoop=1;jettySize=auto;html=1;fontSize=12;startSize=8;endSize=8;" edge="1" parent="1" source="DPP8ruJpzA178E0mYyQU-1" target="DPP8ruJpzA178E0mYyQU-7">
          <mxGeometry relative="1" as="geometry" />
        </mxCell>
        <mxCell id="DPP8ruJpzA178E0mYyQU-12" style="edgeStyle=none;curved=1;rounded=0;orthogonalLoop=1;jettySize=auto;html=1;fontSize=12;startSize=8;endSize=8;" edge="1" parent="1" source="DPP8ruJpzA178E0mYyQU-1" target="DPP8ruJpzA178E0mYyQU-3">
          <mxGeometry relative="1" as="geometry" />
        </mxCell>
        <mxCell id="DPP8ruJpzA178E0mYyQU-13" style="edgeStyle=none;curved=1;rounded=0;orthogonalLoop=1;jettySize=auto;html=1;fontSize=12;startSize=8;endSize=8;" edge="1" parent="1" source="DPP8ruJpzA178E0mYyQU-1" target="DPP8ruJpzA178E0mYyQU-4">
          <mxGeometry relative="1" as="geometry" />
        </mxCell>
        <mxCell id="DPP8ruJpzA178E0mYyQU-14" style="edgeStyle=none;curved=1;rounded=0;orthogonalLoop=1;jettySize=auto;html=1;fontSize=12;startSize=8;endSize=8;" edge="1" parent="1" source="DPP8ruJpzA178E0mYyQU-1" target="DPP8ruJpzA178E0mYyQU-2">
          <mxGeometry relative="1" as="geometry" />
        </mxCell>
        <mxCell id="DPP8ruJpzA178E0mYyQU-21" style="edgeStyle=none;curved=1;rounded=0;orthogonalLoop=1;jettySize=auto;html=1;fontSize=12;startSize=8;endSize=8;" edge="1" parent="1" source="DPP8ruJpzA178E0mYyQU-1" target="DPP8ruJpzA178E0mYyQU-19">
          <mxGeometry relative="1" as="geometry" />
        </mxCell>
        <mxCell id="DPP8ruJpzA178E0mYyQU-1" value="pengajuan" style="rounded=0;whiteSpace=wrap;html=1;" vertex="1" parent="1">
          <mxGeometry x="540" y="230" width="120" height="60" as="geometry" />
        </mxCell>
        <mxCell id="DPP8ruJpzA178E0mYyQU-2" value="nip" style="ellipse;whiteSpace=wrap;html=1;" vertex="1" parent="1">
          <mxGeometry x="450" y="130" width="100" height="60" as="geometry" />
        </mxCell>
        <mxCell id="DPP8ruJpzA178E0mYyQU-3" value="nama" style="ellipse;whiteSpace=wrap;html=1;" vertex="1" parent="1">
          <mxGeometry x="550" y="90" width="100" height="60" as="geometry" />
        </mxCell>
        <mxCell id="DPP8ruJpzA178E0mYyQU-4" value="satuan_kerja_id" style="ellipse;whiteSpace=wrap;html=1;" vertex="1" parent="1">
          <mxGeometry x="640" y="140" width="100" height="60" as="geometry" />
        </mxCell>
        <mxCell id="DPP8ruJpzA178E0mYyQU-5" value="satuan_kerja" style="ellipse;whiteSpace=wrap;html=1;" vertex="1" parent="1">
          <mxGeometry x="210" y="140" width="100" height="60" as="geometry" />
        </mxCell>
        <mxCell id="DPP8ruJpzA178E0mYyQU-6" value="id" style="ellipse;whiteSpace=wrap;html=1;" vertex="1" parent="1">
          <mxGeometry x="80" y="140" width="100" height="60" as="geometry" />
        </mxCell>
        <mxCell id="DPP8ruJpzA178E0mYyQU-16" style="edgeStyle=none;curved=1;rounded=0;orthogonalLoop=1;jettySize=auto;html=1;fontSize=12;startSize=8;endSize=8;" edge="1" parent="1" source="DPP8ruJpzA178E0mYyQU-7" target="DPP8ruJpzA178E0mYyQU-15">
          <mxGeometry relative="1" as="geometry" />
        </mxCell>
        <mxCell id="DPP8ruJpzA178E0mYyQU-7" value="memiliki" style="rhombus;whiteSpace=wrap;html=1;" vertex="1" parent="1">
          <mxGeometry x="340" y="220" width="80" height="80" as="geometry" />
        </mxCell>
        <mxCell id="DPP8ruJpzA178E0mYyQU-17" style="edgeStyle=none;curved=1;rounded=0;orthogonalLoop=1;jettySize=auto;html=1;fontSize=12;startSize=8;endSize=8;" edge="1" parent="1" source="DPP8ruJpzA178E0mYyQU-15" target="DPP8ruJpzA178E0mYyQU-6">
          <mxGeometry relative="1" as="geometry" />
        </mxCell>
        <mxCell id="DPP8ruJpzA178E0mYyQU-18" style="edgeStyle=none;curved=1;rounded=0;orthogonalLoop=1;jettySize=auto;html=1;fontSize=12;startSize=8;endSize=8;" edge="1" parent="1" source="DPP8ruJpzA178E0mYyQU-15" target="DPP8ruJpzA178E0mYyQU-5">
          <mxGeometry relative="1" as="geometry" />
        </mxCell>
        <mxCell id="DPP8ruJpzA178E0mYyQU-15" value="satuan_kerja" style="rounded=0;whiteSpace=wrap;html=1;" vertex="1" parent="1">
          <mxGeometry x="140" y="230" width="120" height="60" as="geometry" />
        </mxCell>
        <mxCell id="DPP8ruJpzA178E0mYyQU-22" style="edgeStyle=none;curved=1;rounded=0;orthogonalLoop=1;jettySize=auto;html=1;fontSize=12;startSize=8;endSize=8;" edge="1" parent="1" source="DPP8ruJpzA178E0mYyQU-19" target="DPP8ruJpzA178E0mYyQU-20">
          <mxGeometry relative="1" as="geometry" />
        </mxCell>
        <mxCell id="DPP8ruJpzA178E0mYyQU-19" value="mendapatkan" style="rhombus;whiteSpace=wrap;html=1;" vertex="1" parent="1">
          <mxGeometry x="560" y="350" width="80" height="80" as="geometry" />
        </mxCell>
        <mxCell id="DPP8ruJpzA178E0mYyQU-32" style="edgeStyle=none;curved=1;rounded=0;orthogonalLoop=1;jettySize=auto;html=1;fontSize=12;startSize=8;endSize=8;" edge="1" parent="1" source="DPP8ruJpzA178E0mYyQU-20" target="DPP8ruJpzA178E0mYyQU-23">
          <mxGeometry relative="1" as="geometry" />
        </mxCell>
        <mxCell id="DPP8ruJpzA178E0mYyQU-33" style="edgeStyle=none;curved=1;rounded=0;orthogonalLoop=1;jettySize=auto;html=1;fontSize=12;startSize=8;endSize=8;" edge="1" parent="1" source="DPP8ruJpzA178E0mYyQU-20" target="DPP8ruJpzA178E0mYyQU-25">
          <mxGeometry relative="1" as="geometry" />
        </mxCell>
        <mxCell id="DPP8ruJpzA178E0mYyQU-34" style="edgeStyle=none;curved=1;rounded=0;orthogonalLoop=1;jettySize=auto;html=1;fontSize=12;startSize=8;endSize=8;" edge="1" parent="1" source="DPP8ruJpzA178E0mYyQU-20" target="DPP8ruJpzA178E0mYyQU-27">
          <mxGeometry relative="1" as="geometry" />
        </mxCell>
        <mxCell id="DPP8ruJpzA178E0mYyQU-35" style="edgeStyle=none;curved=1;rounded=0;orthogonalLoop=1;jettySize=auto;html=1;fontSize=12;startSize=8;endSize=8;" edge="1" parent="1" source="DPP8ruJpzA178E0mYyQU-20" target="DPP8ruJpzA178E0mYyQU-26">
          <mxGeometry relative="1" as="geometry" />
        </mxCell>
        <mxCell id="DPP8ruJpzA178E0mYyQU-46" style="edgeStyle=none;curved=1;rounded=0;orthogonalLoop=1;jettySize=auto;html=1;fontSize=12;startSize=8;endSize=8;" edge="1" parent="1" source="DPP8ruJpzA178E0mYyQU-20" target="DPP8ruJpzA178E0mYyQU-45">
          <mxGeometry relative="1" as="geometry" />
        </mxCell>
        <mxCell id="DPP8ruJpzA178E0mYyQU-20" value="data_pengajuan" style="rounded=0;whiteSpace=wrap;html=1;" vertex="1" parent="1">
          <mxGeometry x="540" y="490" width="120" height="60" as="geometry" />
        </mxCell>
        <mxCell id="DPP8ruJpzA178E0mYyQU-23" value="no_pengajuan" style="ellipse;whiteSpace=wrap;html=1;fontStyle=4" vertex="1" parent="1">
          <mxGeometry x="420" y="580" width="100" height="60" as="geometry" />
        </mxCell>
        <mxCell id="DPP8ruJpzA178E0mYyQU-25" value="nip" style="ellipse;whiteSpace=wrap;html=1;" vertex="1" parent="1">
          <mxGeometry x="590" y="640" width="100" height="60" as="geometry" />
        </mxCell>
        <mxCell id="DPP8ruJpzA178E0mYyQU-26" value="tanggal_akhir" style="ellipse;whiteSpace=wrap;html=1;" vertex="1" parent="1">
          <mxGeometry x="700" y="550" width="100" height="60" as="geometry" />
        </mxCell>
        <mxCell id="DPP8ruJpzA178E0mYyQU-27" value="tanggal_awal" style="ellipse;whiteSpace=wrap;html=1;" vertex="1" parent="1">
          <mxGeometry x="680" y="610" width="100" height="60" as="geometry" />
        </mxCell>
        <mxCell id="DPP8ruJpzA178E0mYyQU-64" style="edgeStyle=none;curved=1;rounded=0;orthogonalLoop=1;jettySize=auto;html=1;fontSize=12;startSize=8;endSize=8;" edge="1" parent="1" source="DPP8ruJpzA178E0mYyQU-29" target="DPP8ruJpzA178E0mYyQU-62">
          <mxGeometry relative="1" as="geometry" />
        </mxCell>
        <mxCell id="DPP8ruJpzA178E0mYyQU-29" value="memiliki" style="rhombus;whiteSpace=wrap;html=1;" vertex="1" parent="1">
          <mxGeometry x="200" y="600" width="80" height="80" as="geometry" />
        </mxCell>
        <mxCell id="DPP8ruJpzA178E0mYyQU-37" value="id" style="ellipse;whiteSpace=wrap;html=1;" vertex="1" parent="1">
          <mxGeometry x="140" y="810" width="100" height="60" as="geometry" />
        </mxCell>
        <mxCell id="DPP8ruJpzA178E0mYyQU-38" value="status_id" style="ellipse;whiteSpace=wrap;html=1;" vertex="1" parent="1">
          <mxGeometry x="40" y="590" width="100" height="60" as="geometry" />
        </mxCell>
        <mxCell id="DPP8ruJpzA178E0mYyQU-51" style="edgeStyle=none;curved=1;rounded=0;orthogonalLoop=1;jettySize=auto;html=1;fontSize=12;startSize=8;endSize=8;" edge="1" parent="1" source="DPP8ruJpzA178E0mYyQU-45" target="DPP8ruJpzA178E0mYyQU-49">
          <mxGeometry relative="1" as="geometry" />
        </mxCell>
        <mxCell id="DPP8ruJpzA178E0mYyQU-45" value="mendapatkan" style="rhombus;whiteSpace=wrap;html=1;" vertex="1" parent="1">
          <mxGeometry x="370" y="480" width="80" height="80" as="geometry" />
        </mxCell>
        <mxCell id="DPP8ruJpzA178E0mYyQU-47" value="nama" style="ellipse;whiteSpace=wrap;html=1;fontStyle=4" vertex="1" parent="1">
          <mxGeometry x="480" y="630" width="100" height="60" as="geometry" />
        </mxCell>
        <mxCell id="DPP8ruJpzA178E0mYyQU-48" style="edgeStyle=none;curved=1;rounded=0;orthogonalLoop=1;jettySize=auto;html=1;entryX=0.728;entryY=0.075;entryDx=0;entryDy=0;entryPerimeter=0;fontSize=12;startSize=8;endSize=8;" edge="1" parent="1" source="DPP8ruJpzA178E0mYyQU-20" target="DPP8ruJpzA178E0mYyQU-47">
          <mxGeometry relative="1" as="geometry" />
        </mxCell>
        <mxCell id="DPP8ruJpzA178E0mYyQU-54" style="edgeStyle=none;curved=1;rounded=0;orthogonalLoop=1;jettySize=auto;html=1;fontSize=12;startSize=8;endSize=8;" edge="1" parent="1" source="DPP8ruJpzA178E0mYyQU-49" target="DPP8ruJpzA178E0mYyQU-52">
          <mxGeometry relative="1" as="geometry" />
        </mxCell>
        <mxCell id="DPP8ruJpzA178E0mYyQU-58" style="edgeStyle=none;curved=1;rounded=0;orthogonalLoop=1;jettySize=auto;html=1;fontSize=12;startSize=8;endSize=8;" edge="1" parent="1" source="DPP8ruJpzA178E0mYyQU-49" target="DPP8ruJpzA178E0mYyQU-53">
          <mxGeometry relative="1" as="geometry" />
        </mxCell>
        <mxCell id="DPP8ruJpzA178E0mYyQU-59" style="edgeStyle=none;curved=1;rounded=0;orthogonalLoop=1;jettySize=auto;html=1;fontSize=12;startSize=8;endSize=8;" edge="1" parent="1" source="DPP8ruJpzA178E0mYyQU-49" target="DPP8ruJpzA178E0mYyQU-55">
          <mxGeometry relative="1" as="geometry" />
        </mxCell>
        <mxCell id="DPP8ruJpzA178E0mYyQU-60" style="edgeStyle=none;curved=1;rounded=0;orthogonalLoop=1;jettySize=auto;html=1;entryX=1;entryY=0;entryDx=0;entryDy=0;fontSize=12;startSize=8;endSize=8;" edge="1" parent="1" source="DPP8ruJpzA178E0mYyQU-49" target="DPP8ruJpzA178E0mYyQU-38">
          <mxGeometry relative="1" as="geometry" />
        </mxCell>
        <mxCell id="DPP8ruJpzA178E0mYyQU-61" style="edgeStyle=none;curved=1;rounded=0;orthogonalLoop=1;jettySize=auto;html=1;fontSize=12;startSize=8;endSize=8;" edge="1" parent="1" source="DPP8ruJpzA178E0mYyQU-49" target="DPP8ruJpzA178E0mYyQU-29">
          <mxGeometry relative="1" as="geometry" />
        </mxCell>
        <mxCell id="DPP8ruJpzA178E0mYyQU-49" value="status_pengajuan" style="rounded=0;whiteSpace=wrap;html=1;" vertex="1" parent="1">
          <mxGeometry x="180" y="490" width="120" height="60" as="geometry" />
        </mxCell>
        <mxCell id="DPP8ruJpzA178E0mYyQU-52" value="no" style="ellipse;whiteSpace=wrap;html=1;" vertex="1" parent="1">
          <mxGeometry x="230" y="380" width="100" height="60" as="geometry" />
        </mxCell>
        <mxCell id="DPP8ruJpzA178E0mYyQU-53" value="nip" style="ellipse;whiteSpace=wrap;html=1;" vertex="1" parent="1">
          <mxGeometry x="100" y="380" width="100" height="60" as="geometry" />
        </mxCell>
        <mxCell id="DPP8ruJpzA178E0mYyQU-55" value="nama" style="ellipse;whiteSpace=wrap;html=1;" vertex="1" parent="1">
          <mxGeometry x="10" y="480" width="100" height="60" as="geometry" />
        </mxCell>
        <mxCell id="DPP8ruJpzA178E0mYyQU-65" style="edgeStyle=none;curved=1;rounded=0;orthogonalLoop=1;jettySize=auto;html=1;fontSize=12;startSize=8;endSize=8;" edge="1" parent="1" source="DPP8ruJpzA178E0mYyQU-62" target="DPP8ruJpzA178E0mYyQU-37">
          <mxGeometry relative="1" as="geometry" />
        </mxCell>
        <mxCell id="DPP8ruJpzA178E0mYyQU-66" style="edgeStyle=none;curved=1;rounded=0;orthogonalLoop=1;jettySize=auto;html=1;fontSize=12;startSize=8;endSize=8;" edge="1" parent="1" source="DPP8ruJpzA178E0mYyQU-62" target="DPP8ruJpzA178E0mYyQU-63">
          <mxGeometry relative="1" as="geometry" />
        </mxCell>
        <mxCell id="DPP8ruJpzA178E0mYyQU-62" value="status" style="rounded=0;whiteSpace=wrap;html=1;" vertex="1" parent="1">
          <mxGeometry x="180" y="720" width="120" height="60" as="geometry" />
        </mxCell>
        <mxCell id="DPP8ruJpzA178E0mYyQU-63" value="status_id" style="ellipse;whiteSpace=wrap;html=1;" vertex="1" parent="1">
          <mxGeometry x="260" y="810" width="100" height="60" as="geometry" />
        </mxCell>
      </root>
    </mxGraphModel>
  </diagram>
</mxfile>
